PathFileType	4	(X/Y/Z)	C:\Users\ebm\Documents\Erivelton\Erivelton2\wc5.trc
DataRate	CameraRate	NumFrames	NumMarkers	Units	OrigDataRate	OrigDataStartFrame	OrigNumFrames
150.00	150.00	      35	28	mm	150.00	986	      1126
Frame#	Time	IJ			PX			C7			T8			RAC			RAS			RPS			RAI			RPI			RLE			RME			RRS			RUS			R3M			R5M			LAC			LAS			LPS			LAI			LPI			LLE			LME			LRS			LUS			L3M			L5M			RW			LW			V_mid_elbow_r			V_mid_elbow_l			V_mid_wrist_r			V_mid_wrist_l			V_mid_trunk_low			V_mid_trunk_upp			
		X1	Y1	Z1	X2	Y2	Z2	X3	Y3	Z3	X4	Y4	Z4	X5	Y5	Z5	X6	Y6	Z6	X7	Y7	Z7	X8	Y8	Z8	X9	Y9	Z9	X10	Y10	Z10	X11	Y11	Z11	X12	Y12	Z12	X13	Y13	Z13	X14	Y14	Z14	X15	Y15	Z15	X16	Y16	Z16	X17	Y17	Z17	X18	Y18	Z18	X19	Y19	Z19	X20	Y20	Z20	X21	Y21	Z21	X22	Y22	Z22	X23	Y23	Z23	X24	Y24	Z24	X25	Y25	Z25	X26	Y26	Z26	X27	Y27	Z27	X28	Y28	Z28	

986	6.567													4466.70605	1064.29175	161.63588				4379.91162	917.23248	251.59174	4395.95605	826.14923	280.91092	4349.46143	851.65295	287.82056	4337.24121	783.84985	309.86636																						4367.78564	880.86926	-290.97385	4411.87744	801.65442	-327.33170	4359.09131	799.98468	-311.82224																						4344.24219	291.36569	-334.07291	
987	6.573													4477.56250	1063.59912	160.95988				4390.54785	916.76910	251.22894	4406.41602	825.77686	280.67654	4359.78613	851.37720	287.46661	4347.87842	783.46716	309.62308																						4377.12158	880.62897	-291.37723	4421.31885	801.50507	-328.04459	4368.31445	799.77094	-312.40454																						4354.10303	291.19037	-334.69208	
988	6.580													4488.88818	1063.15271	160.07478				4401.00244	916.29834	250.82393	4416.87646	825.33960	280.37396	4370.31885	850.83533	287.14481	4358.29395	782.93164	309.18362																						4386.52344	880.47614	-291.94727	4430.55811	801.21307	-328.49438	4377.84229	799.51471	-312.84442																						4363.78125	290.72482	-335.09064	
989	6.587																			4411.50879	915.76880	250.33603	4427.33691	824.79572	280.13657	4380.74316	850.35596	286.86432	4368.83789	782.38660	308.91885																						4395.80908	880.32837	-292.39536				4387.05127	799.40259	-313.34552																						4373.50000	290.34146	-335.67554	
990	6.593																			4422.05957	915.18530	249.94969	4437.85840	824.26300	279.83258	4391.18652	849.82410	286.45416	4379.49219	781.73749	308.66257																						4404.95996	879.99481	-292.69540				4396.13330	799.22333	-313.81473																						4382.98633	289.99005	-336.34250	
991	6.600																			4432.47803	914.55408	249.55183				4401.88525	849.24103	286.13177	4389.97754	781.08545	308.34256																						4414.03467	879.75934	-293.13303				4405.23047	798.86163	-314.18143																						4392.56299	289.92978	-336.95892	
992	6.607																			4443.01318	913.87262	249.11470				4412.45361	848.54517	285.99429	4400.80762	780.43848	308.10693																						4423.16797	879.55597	-293.63983				4414.28955	798.61292	-314.50046																						4402.29297	289.76016	-337.57068	
993	6.613																			4453.12695	913.17432	248.78586				4423.18066	847.77582	285.61969	4411.67334	779.83142	307.93036																						4432.15039	879.10809	-293.89926				4423.37793	798.42352	-315.05295																						4411.85352	289.58923	-338.33640	
994	6.620																			4463.51758	912.50592	248.49391				4434.06348	846.99719	285.18997	4422.48633	778.70007	307.40408																						4441.03271	878.88037	-294.41028				4432.21582	798.28473	-315.48166																						4421.53271	289.38742	-338.96564	
995	6.627																			4474.34180	911.73315	248.03920				4445.00146	846.14526	284.88763	4433.38477	777.82825	306.80774																						4450.00488	878.69214	-294.79312				4440.86865	797.90326	-315.77759																									
996	6.633																			4485.11816	910.98438	247.51259				4455.34473	845.56909	284.41345	4444.52930	777.00592	306.32745																						4458.71777	878.07153	-295.18591				4449.96924	797.81372	-316.37701																									
997	6.640																			4495.59668	910.33612	247.02232				4466.25537	844.72974	283.86404	4455.76221	776.19940	305.80200																						4467.70166	878.35785	-295.66251				4458.53613	797.63147	-316.97485																									
998	6.647																			4506.42578	909.59778	246.50911				4477.31982	843.99731	283.25452	4466.75439	775.28778	305.24213																						4476.43408	877.68817	-296.18497				4467.53711	797.27887	-317.39240																									
999	6.653																			4517.07959	908.96716	245.90977				4488.05029	842.75012	282.49631	4477.92725	774.66394	304.67303																						4485.06396	877.52118	-296.72684				4476.19531	797.23773	-317.99274																									
1000	6.660																			4527.62939	908.33167	245.24252				4499.39893	842.24469	281.98621	4489.01660	773.78320	303.86664																						4494.26074	877.87714	-297.39969				4485.09082	797.04364	-318.57544																									
1001	6.667																			4538.07031	907.68237	244.56778				4510.27344	841.54102	281.28250	4500.37451	772.91364	302.96332																						4503.03564	877.76062	-297.95627				4494.10986	797.10565	-319.24548																									
1002	6.673																			4548.55566	907.12427	243.72704				4520.84668	840.85205	280.66342	4511.05664	772.30151	302.17575																						4511.73291	877.17175	-298.34689				4502.74463	796.89722	-319.52454																									
1003	6.680																			4559.00684	906.58923	243.04623				4531.76367	840.04791	279.68274	4522.26465	771.53687	301.36026																						4520.67920	877.47968	-298.82040				4511.69971	796.83356	-319.86511																									
1004	6.687																			4569.32520	906.00061	242.18970				4542.46191	839.42566	278.92587	4533.29834	770.70001	300.47705																						4529.46094	877.35608	-299.28320				4520.39697	796.47485	-320.06604																									
1005	6.693																			4579.71973	905.47522	241.41121				4553.17920	838.61188	277.98080	4544.29980	769.94531	299.41241																						4537.90381	876.81134	-299.51880				4529.12744	796.31421	-320.39865																									
1006	6.700																			4589.99951	904.95477	240.66624				4563.45166	837.88922	277.21036	4555.15088	769.12872	298.52261																						4546.67480	876.64343	-299.89832				4537.77246	796.23370	-320.75293																									
1007	6.707																			4600.08008	904.44733	239.83127				4574.25146	837.39758	276.20761	4565.95703	768.52124	297.58987																						4555.53369	876.84485	-300.35873				4546.59521	795.87073	-320.91235																									
1008	6.713																			4610.56787	903.85632	238.94783				4584.66064	836.52515	275.37726	4576.86377	767.63190	296.63016																						4564.06201	876.42255	-300.58371				4555.30029	795.73187	-321.28464																									
1009	6.720																			4620.63086	903.32385	238.17987				4595.07910	835.80762	274.64429	4587.94141	766.83337	295.72275																						4572.50781	876.10785	-300.98981				4564.02295	795.54218	-321.66116																									
1010	6.727																			4630.68115	902.90558	237.46791				4605.82080	835.17419	273.63254	4598.60156	766.18671	294.78522																						4581.20801	875.81396	-301.33978				4572.94287	795.24799	-322.04813																									
1011	6.733																			4641.04590	902.35510	236.65512				4616.19434	834.44525	272.94617	4609.55762	765.47833	293.82248																						4589.90137	875.60907	-301.67349				4581.77002	794.79669	-322.24316																									
1012	6.740																			4651.16064	901.92175	235.84344				4627.01270	833.95844	271.86722	4620.25049	764.82086	292.83664																						4598.54346	875.17047	-302.15616				4590.58740	794.43585	-322.56494																									
1013	6.747																			4661.38477	901.59637	235.04254				4637.63379	833.33795	271.11328	4631.44873	764.13739	291.66409																						4607.09473	874.86578	-302.56439				4599.35986	794.03723	-322.79291																									
1014	6.753																			4671.50391	901.21863	234.17444				4648.28906	832.74896	270.35129	4642.09912	763.59845	290.64737																						4615.93457	874.84363	-302.85995				4608.03271	793.90674	-323.05322																									
1015	6.760																			4681.71680	900.78516	233.37802				4658.97266	832.19128	269.35513	4652.88916	763.12073	289.73450																						4624.41162	874.52972	-303.20984				4616.90381	793.70831	-323.39862																									
1016	6.767																			4691.85938	900.59406	232.64471				4669.47217	831.61804	268.63287	4663.63428	762.57159	288.71774																						4632.76123	874.20892	-303.70285				4625.48828	793.31812	-323.59653																									
1017	6.773																			4702.12012	900.10907	231.92841				4680.14209	831.06781	267.66510	4674.76416	762.10449	287.69839																						4641.28027	873.91479	-304.08829				4634.34814	792.95898	-324.03052																									
1018	6.780																			4712.18555	899.69421	231.14227				4690.65479	830.62976	266.90732	4685.08838	761.65100	286.94495																						4649.89014	873.48676	-304.58902				4643.03906	792.34021	-324.34543																									
1019	6.787																			4722.37891	899.37018	230.35052				4701.06348	829.80353	265.85336	4695.91699	761.19946	286.07370																						4658.36133	872.96326	-305.10556				4651.87793	791.77472	-324.74420																									
1020	6.793																			4732.54834	898.97906	229.68556				4711.83691	829.44189	265.25839	4706.50098	760.70923	285.25479																						4667.20996	872.71619	-305.54639				4660.52832	791.20654	-325.08682																									
